<svg xmlns="http://www.w3.org/2000/svg" width="24" height="24" fill="none"><path stroke="#414141" stroke-linecap="round" stroke-linejoin="round" d="M5.139 15.311h-1.43v2.716h1.43zm15.069 0h-1.43v2.716h1.43zm-9.033 0h-1.43v2.716h1.43zm2.97 0h-1.43v2.716h1.43zm7.576-4.158H2.21a.694.694 0 0 0-.688.7v2.758c0 .387.308.7.688.7h19.511c.38 0 .688-.313.688-.7v-2.758c0-.387-.308-.7-.688-.7m-19.759 0 4.043-4.62h11.907l4.029 4.62m-9.982-4.62v8.778"/><path fill="#414141" d="m16.95 11.04-.509-1.12h2.901l.715.897M8.04 11.04l.206-1.12h2.902v.897"/></svg>