<svg xmlns="http://www.w3.org/2000/svg" class="icon icon-star-filled" width="14" height="14" fill="none">
	<g fill="CurrentColor">
		<path
			d="M6.63.888a.4.4 0 0 1 .74 0l1.388 3.338a.4.4 0 0 0 .337.245l3.604.289a.4.4 0 0 1 .228.703l-2.746 2.351a.4.4 0 0 0-.128.397l.838 3.517a.4.4 0 0 1-.597.434l-3.086-1.885a.4.4 0 0 0-.417 0l-3.085 1.885a.4.4 0 0 1-.597-.434l.838-3.517a.4.4 0 0 0-.128-.397L1.073 5.463a.4.4 0 0 1 .228-.703l3.604-.289a.4.4 0 0 0 .337-.245z"
		/>
		<path
			d="M6.63.888a.4.4 0 0 1 .74 0l1.388 3.338a.4.4 0 0 0 .337.245l3.604.289a.4.4 0 0 1 .228.703l-2.746 2.351a.4.4 0 0 0-.128.397l.838 3.517a.4.4 0 0 1-.597.434l-3.086-1.885a.4.4 0 0 0-.417 0l-3.085 1.885a.4.4 0 0 1-.597-.434l.838-3.517a.4.4 0 0 0-.128-.397L1.073 5.463a.4.4 0 0 1 .228-.703l3.604-.289a.4.4 0 0 0 .337-.245z"
		/>
		<path
			d="M6.63.888a.4.4 0 0 1 .74 0l1.388 3.338a.4.4 0 0 0 .337.245l3.604.289a.4.4 0 0 1 .228.703l-2.746 2.351a.4.4 0 0 0-.128.397l.838 3.517a.4.4 0 0 1-.597.434l-3.086-1.885a.4.4 0 0 0-.417 0l-3.085 1.885a.4.4 0 0 1-.597-.434l.838-3.517a.4.4 0 0 0-.128-.397L1.073 5.463a.4.4 0 0 1 .228-.703l3.604-.289a.4.4 0 0 0 .337-.245z"
		/>
	</g>
</svg>
