<svg width="16" height="16" viewBox="0 0 16 16" fill="none" xmlns="http://www.w3.org/2000/svg">
<g clip-path="url(#clip0_66_2244)">
<path d="M8 0.500061C9.98912 0.500061 11.8972 1.28983 13.3037 2.69635C14.7102 4.10287 15.5 6.01094 15.5 8.00006C15.5 8.98498 15.3056 9.96024 14.9287 10.8702C14.5518 11.7801 14.0001 12.6074 13.3037 13.3038C12.6073 14.0002 11.78 14.5519 10.8701 14.9288C9.96018 15.3057 8.98491 15.5001 8 15.5001C7.01509 15.5001 6.03982 15.3057 5.12988 14.9288C4.21999 14.5519 3.3927 14.0002 2.69629 13.3038C1.99988 12.6074 1.4482 11.7801 1.07129 10.8702C0.694379 9.96024 0.5 8.98498 0.5 8.00006C0.5 6.01094 1.28977 4.10287 2.69629 2.69635C4.01487 1.37777 5.77426 0.600846 7.62793 0.50885L8 0.500061Z" stroke="#757575" stroke-linecap="round" stroke-linejoin="round"/>
<path d="M8 4.83661H8.01318" stroke="#757575" stroke-width="1.5" stroke-linecap="round" stroke-linejoin="round"/>
<path d="M6.94556 8H8.00002V12.2179H9.05449" stroke="#757575" stroke-linecap="round" stroke-linejoin="round"/>
</g>
<defs>
<clipPath id="clip0_66_2244">
<rect width="16" height="16" fill="white"/>
</clipPath>
</defs>
</svg>
