<svg width="108" height="25" fill="none" class="icon icon-paiement-12">
<rect width="107" height="23" x=".5" y=".997" stroke="#EBEBEB" rx="1.5"/>
<path fill="#010C27" d="M11.86 14.327c1.47 0 2.16-.46 2.16-1.69 0-1.25-.71-1.76-2.06-1.76-.38 0-1.34.01-1.84.02v3.41c.3.01 1.01.02 1.74.02m-2.8-4.33h3.07c1.77 0 2.89.73 2.89 2.65 0 1.8-1.17 2.56-2.96 2.56-.67 0-1.02 0-1.93-.02.01.91.02 1.7.06 2.31H9.06c.04-1.08.04-2.15.04-3.75 0-1.59 0-2.75-.04-3.75m11.307 5.18v-.33c-.55-.09-1.2-.12-1.88-.12-1.15 0-1.69.33-1.69 1.08 0 .69.45 1.07 1.49 1.07 1.37 0 2.08-.72 2.08-1.7m.03 1.14h-.05c-.32.84-1.15 1.29-2.41 1.29-1.34 0-2.09-.54-2.09-1.68 0-1.18.81-1.73 2.51-1.73.85 0 1.56.06 2.02.17.01-.25.01-.48.01-.67 0-.88-.45-1.51-1.67-1.51-1.15 0-1.72.52-1.69 1.5-.12-.01-.26-.01-.43-.01-.18 0-.37 0-.51.02-.05-1.36.77-2.32 2.62-2.32 1.92 0 2.65.98 2.65 2.27 0 .73-.03 1.3-.03 2.02s.03 1.52.12 1.83h-.8c-.22 0-.27-.05-.27-.3s.01-.58.02-.88m4.13-5.96c0 .25-.14.47-.71.47-.56 0-.7-.22-.7-.47 0-.27.15-.45.7-.45s.71.18.71.45m-.2 7.14h-1.02c.03-1 .03-1.85.03-3.11 0-1.19 0-1.96-.03-2.9h1.02c-.04.94-.04 1.7-.04 2.93 0 1.31 0 2.08.04 3.08m4.477-5.41c-1.18 0-1.92.62-2.03 2.04 1.05.02 2.93.02 3.73 0 .01-.11.01-.25.01-.38 0-1.02-.51-1.66-1.71-1.66m2.17 3.41c.18 0 .31-.01.43-.02.03 1.15-.44 2.15-2.58 2.15-1.82 0-2.98-1.01-2.98-3.13 0-2.15 1.19-3.14 3-3.14 1.85 0 2.57.99 2.57 2.48 0 .32 0 .63-.02.87-.44-.01-1.27 0-2.43 0-.77 0-1.57-.01-2.21-.02.05 1.49.8 2.2 2.08 2.2 1.31 0 1.68-.57 1.68-1.41.13.01.27.02.46.02m10.967 2h-.98c.02-.82.03-2.25.03-3.85 0-.95-.38-1.42-1.34-1.42-.94 0-1.7.53-1.7 1.75 0 1.81-.01 2.71.02 3.52h-.97c.02-.83.03-1.91.03-3.82 0-.96-.37-1.45-1.34-1.45-.93 0-1.7.53-1.7 1.75 0 1.54 0 2.9.01 3.52h-.96c.02-.83.02-1.66.02-2.89 0-1.33 0-2.23-.02-3.12h.99c-.02.4-.01.69-.03 1.09l.05.01c.36-.79 1.01-1.2 1.98-1.2s1.65.4 1.82 1.24l.06.01c.35-.85 1.08-1.25 2.06-1.25 1.24 0 1.96.62 1.96 1.92 0 .74-.03 1.51-.03 2.2 0 .64.02 1.41.04 1.99m4.363-5.41c-1.18 0-1.92.62-2.03 2.04 1.05.02 2.93.02 3.73 0 .01-.11.01-.25.01-.38 0-1.02-.51-1.66-1.71-1.66m2.17 3.41c.18 0 .31-.01.43-.02.03 1.15-.44 2.15-2.58 2.15-1.82 0-2.98-1.01-2.98-3.13 0-2.15 1.19-3.14 3-3.14 1.85 0 2.57.99 2.57 2.48 0 .32 0 .63-.02.87-.44-.01-1.27 0-2.43 0-.77 0-1.57-.01-2.21-.02.05 1.49.8 2.2 2.08 2.2 1.31 0 1.68-.57 1.68-1.41.13.01.27.02.46.02m7.727 2h-1.02c.02-.94.03-2.03.03-3.64 0-1.06-.46-1.64-1.65-1.64-1.13 0-2.03.57-2.03 1.83 0 2.09.01 2.84.02 3.45h-1.01c.02-.81.03-1.62.03-2.9 0-1.32-.01-2.33-.03-3.11h1.01c-.01.4-.01.72-.02 1.12l.06.01c.39-.81 1.21-1.23 2.36-1.23 1.47 0 2.24.77 2.24 2.28 0 .99-.02 1.32-.02 1.92 0 .68.01 1.29.03 1.91m2.042-5.18h-.9c0-.24 0-.57-.01-.83.28.01.59.01.91.02v-1.27c.16 0 .34.01.51.01.16 0 .33 0 .48-.01-.01.4-.01.83-.02 1.27.88 0 1.83 0 2.78-.02-.01.26-.02.6-.02.87-.82-.02-1.82-.03-2.77-.03-.01.96-.01 2.02-.01 3.18 0 .79.38 1.21 1.41 1.21.52 0 .97-.1 1.36-.24.03.29.1.64.14.88-.52.13-.97.23-1.61.23-1.62 0-2.26-.8-2.26-1.98 0-.82.01-2.04.01-3.29m10.805-.23c-1.18 0-1.92.62-2.03 2.04 1.05.02 2.93.02 3.73 0 .01-.11.01-.25.01-.38 0-1.02-.51-1.66-1.71-1.66m2.17 3.41c.18 0 .31-.01.43-.02.03 1.15-.44 2.15-2.58 2.15-1.82 0-2.98-1.01-2.98-3.13 0-2.15 1.19-3.14 3-3.14 1.85 0 2.57.99 2.57 2.48 0 .32 0 .63-.02.87-.44-.01-1.27 0-2.43 0-.77 0-1.57-.01-2.21-.02.05 1.49.8 2.2 2.08 2.2 1.31 0 1.68-.57 1.68-1.41.13.01.27.02.46.02m7.727 2h-1.02c.02-.94.03-2.03.03-3.64 0-1.06-.46-1.64-1.65-1.64-1.13 0-2.03.57-2.03 1.83 0 2.09.01 2.84.02 3.45h-1.01c.02-.81.03-1.62.03-2.9 0-1.32-.01-2.33-.03-3.11h1.01c-.01.4-.01.72-.02 1.12l.06.01c.39-.81 1.21-1.23 2.36-1.23 1.47 0 2.24.77 2.24 2.28 0 .99-.02 1.32-.02 1.92 0 .68.01 1.29.03 1.91m5.819-7.5h.25c-.03.89-.04 2.14-.04 3.75 0 1.58.01 2.65.04 3.75-.22-.01-.38-.01-.53-.01-.16 0-.34 0-.57.01.03-1.09.04-2.16.04-3.75 0-1.52-.04-2.41-.07-3.26.22-.12.46-.32.61-.49zm2.742 6.64h2.25c1.03 0 1.94 0 2.76-.04-.01.15-.01.33-.01.52 0 .16 0 .29.01.38h-6.01c.01-.09.01-.2.01-.34v-.35c0-1.52.83-2.17 2.8-2.8 1.63-.53 2.23-.99 2.23-1.9s-.6-1.39-1.91-1.39c-1.36 0-1.97.68-1.97 1.71 0 .22.02.42.03.66-.11-.01-.28-.02-.47-.02-.18 0-.36.01-.49.02-.01-.26-.03-.44-.03-.7 0-1.56 1.05-2.51 2.95-2.51 1.96 0 2.86.88 2.86 2.19 0 1.38-.88 1.97-2.67 2.57-1.88.61-2.33.97-2.34 2m10.523-5.15h1.13c-.54.68-1.29 1.81-2.09 2.97.81 1.11 1.7 2.32 2.2 3.04h-1.21c-.35-.54-.74-1.08-1.21-1.76-.27-.41-.44-.69-.6-.94h-.05c-.15.25-.33.54-.6.94-.48.73-.85 1.22-1.15 1.76h-1.16c.46-.63 1.37-1.92 2.16-3.04-.78-1.11-1.51-2.2-2.07-2.97h1.19c.34.56.8 1.23 1.24 1.91.21.32.34.55.46.75h.04c.11-.2.25-.42.46-.74.48-.72.94-1.4 1.26-1.92"/>
</svg>
