<svg
	xmlns="http://www.w3.org/2000/svg"
	class="icon icon-empty-cart"
	width="180"
	height="180"
	viewBox="0 0 180 180"
	fill="none"
>
	<path
		stroke="currentColor"
		stroke-linecap="round"
		stroke-linejoin="round"
		d="m48.096 143.583 3.168 16.02a4.99 4.99 0 0 0 4.896 4.025h68.958a4.99 4.99 0 0 0 4.893-4.025l5.382-27.22 1.27-6.433.868-4.392m-93.801-.047.922 4.655.943 4.78.327 1.649m28.174-11.142H39.435a.836.836 0 0 1-.835-.835v-6.815c0-.461.374-.835.835-.835H61.28m50.91-.004h28.602c.461 0 .835.374.835.835v6.815a.835.835 0 0 1-.835.835h-35.107m-13.287-8.485h6.364m-17.445 0h2.07m8.377 2.671-1.724-1.451a3.186 3.186 0 0 0-4.576.504"
	/>
	<path
		stroke="currentColor"
		stroke-linecap="round"
		stroke-linejoin="round"
		d="m94.536 126.356 42.984 36.119a3.186 3.186 0 0 0 4.504-.414c1.123-1.365.936-3.413-.418-4.547l-39.845-33.48m-8.057-8.687a6.131 6.131 0 0 0-10.821-1.721"
	/>
	<path
		fill="currentColor"
		stroke="currentColor"
		stroke-linecap="round"
		stroke-linejoin="round"
		d="m119.7 148.927 20.582 17.024a.95.95 0 0 0 1.346-.133l4.615-5.35a.97.97 0 0 0-.137-1.357l-20.581-17.024a.95.95 0 0 0-1.346.133l-4.615 5.349a.97.97 0 0 0 .136 1.358"
	/>
	<path
		stroke="currentColor"
		stroke-linecap="round"
		stroke-linejoin="round"
		d="m100.578 60.707.118 2.347.018.328.011.338.018.68.04 1.361.021 1.383c.015.921.026 1.843.026 2.775 0 .93.01 1.692 0 2.625m6.542 1.264v-1.987l-.033-3.496-.032-1.75-.018-.874-.029-.878-.061-1.757-.126-2.2"
	/>
	<path
		stroke="currentColor"
		stroke-linecap="round"
		stroke-linejoin="round"
		d="m103.181 102.269-.047 1.649-.036 1.206v.075q.001.032-.004.058l-.007.111-.014.227c-.007.076-.007.151-.018.227l-.033.223c-.032.299-.111.601-.176.911l-.133.464c-.04.155-.108.306-.159.461l-.082.231c-.029.075-.065.151-.098.23-.068.151-.126.306-.201.457-.155.299-.299.605-.479.893-.162.299-.367.576-.551.864-.101.14-.209.274-.309.41l-.155.206-.169.194-.339.392-.363.371c-.12.13-.249.241-.378.357-.13.115-.256.234-.39.345l-.41.321-.1.082-.05.04h-.008s0 .004-.018.018l-.083.054-.162.112c-.216.147-.425.302-.655.428-.227.133-.443.274-.684.385-.925.483-1.919.839-2.948 1.073a14.3 14.3 0 0 1-3.197.299c-2.182-.025-4.421-.58-6.592-1.404-.273-.101-.54-.227-.81-.339-.27-.118-.543-.219-.806-.352l-.796-.393-.4-.194c-.133-.065-.262-.144-.392-.213l-.785-.435-.392-.22-.4-.241c-.536-.317-1.065-.648-1.594-.976-4.245-2.667-8.378-5.774-12.856-8.622-.558-.356-1.127-.705-1.696-1.054-.284-.173-.586-.342-.878-.515-.295-.169-.587-.349-.89-.508-.6-.32-1.194-.655-1.806-.95l-.915-.454-.925-.428c-1.235-.573-2.502-1.073-3.773-1.548-1.281-.454-2.57-.886-3.88-1.242-1.307-.378-2.632-.673-3.96-.95-.332-.069-.667-.123-1.001-.184-.335-.058-.666-.126-1.005-.173-.673-.094-1.339-.209-2.016-.277l-1.011-.115-1.016-.087c-.676-.065-1.353-.09-2.03-.126a42 42 0 0 0-4.115.025 37 37 0 0 0-4.136.468c-1.379.249-2.75.58-4.108 1.02a25 25 0 0 0-3.97 1.71l-.951.543-.922.608c-.31.195-.597.436-.892.656l-.44.338c-.144.115-.28.245-.42.364-1.131.961-2.118 2.087-2.992 3.268l-.627.904c-.198.306-.374.626-.561.939l-.278.472-.244.486c-.159.324-.328.644-.48.972-.273.662-.572 1.318-.788 1.994l-.172.504a7 7 0 0 0-.162.508l-.288 1.019c-.339 1.361-.612 2.732-.756 4.104-.098.687-.123 1.371-.18 2.055-.015.342-.022.684-.033 1.026l-.014.512v.511l.018 1.019.05 1.015.029.507.047.504.093 1.008a38 38 0 0 0 .66 4.014c.302 1.34.694 2.679 1.209 3.993a22 22 0 0 0 1.958 3.823c.205.299.403.605.627.893l.673.864.723.813c.245.267.508.512.764.767 2.091 1.984 4.536 3.474 7.08 4.504a28 28 0 0 0 3.889 1.267 31.5 31.5 0 0 0 3.97.702c2.64.302 5.246.288 7.784.13 2.804-.18 5.191-.508 7.473-.825a1.85 1.85 0 0 0 1.577-2.102l-1.073-7.333c-.15-1.026-1.105-1.728-2.095-1.574-2.3.357-4.5.659-6.584.814a45 45 0 0 1-2.981.094 29 29 0 0 1-2.776-.155c-.457-.043-.86-.108-1.281-.173l-.62-.115-.608-.137a19 19 0 0 1-2.315-.716c-.73-.285-1.4-.623-2.016-.987a10 10 0 0 1-1.623-1.177 8.8 8.8 0 0 1-1.195-1.318 9.6 9.6 0 0 1-.933-1.656c-.561-1.281-.997-2.908-1.249-4.759a21 21 0 0 1-.158-1.4c-.018-.231-.05-.465-.062-.691l-.036-.692c-.018-.23-.014-.457-.018-.687 0-.227-.01-.457-.007-.684l.022-.673c.003-.112 0-.227.01-.335l.026-.331.047-.663.079-.644.036-.324.054-.313.104-.623c.04-.202.09-.4.133-.601l.065-.299c.018-.101.054-.191.08-.288l.158-.573c.054-.187.126-.36.183-.543a10.8 10.8 0 0 1 1.973-3.539c.101-.119.213-.216.313-.328.105-.108.198-.226.32-.32q.173-.15.34-.306.189-.137.374-.284c.115-.105.262-.184.396-.274.136-.086.259-.191.417-.266q.222-.123.44-.256c.158-.076.32-.151.475-.234.651-.299 1.35-.587 2.134-.803a18 18 0 0 1 2.477-.54l.324-.054c.108-.018.223-.025.335-.039l.673-.08c.461-.032.915-.082 1.386-.093.465-.029.943-.025 1.419-.036l.723.011.364.007.374.018c2.002.086 4 .32 5.98.695a42.4 42.4 0 0 1 11.38 3.924c.439.241.889.468 1.324.716l.652.378.327.187.346.213a92 92 0 0 1 2.797 1.778c1.887 1.242 3.82 2.592 5.84 3.978 1.015.695 2.044 1.397 3.106 2.102 1.07.702 2.153 1.408 3.283 2.096.278.172.57.342.854.514.291.173.558.339.892.522l.965.533c.324.177.637.36.98.522a39 39 0 0 0 4.183 1.84l1.105.396c.374.126.763.234 1.148.349l.576.169q.144.044.288.083l.299.072 1.199.277c.392.097.82.155 1.231.227l.623.101.31.05.32.036 1.281.126c.213.022.432.029.652.036l.655.022c3.496.111 7.261-.594 10.663-2.189q.635-.313 1.257-.637.61-.352 1.213-.717c.4-.248.778-.522 1.166-.788l.245-.173.047-.036.09-.072.727-.579c.245-.191.475-.4.706-.609l.684-.63c.871-.878 1.706-1.793 2.43-2.793.378-.49.705-1.016 1.047-1.534.162-.263.317-.536.472-.806l.23-.407c.076-.137.144-.281.213-.418.14-.281.281-.561.414-.846l.374-.878c.126-.288.234-.594.342-.9l.159-.457q.082-.227.147-.468c.09-.317.18-.638.267-.954.082-.324.147-.659.216-.994.032-.169.072-.331.097-.508l.075-.522c.047-.349.098-.698.116-1.047.025-.349.043-.706.057-1.051l.011-.602.022-1.198.14-4.201c-.043-1.93.007-4.126.918-5.865 1.361-2.39 1.627-5.036 1.235-7.91-.205-1.108-.573-2.16-.997-3.214-.429-1.055-.911-2.11-1.34-3.215-.536-1.44-.694-2.93-.885-4.395-.198-1.47-.411-2.906-1.087-4.234-.666-1.105-2.193-.637-3.064-.19-1.512 1.115-.637 2.858-.979 4.233"
	/>
	<path
		stroke="currentColor"
		stroke-linecap="round"
		stroke-linejoin="round"
		d="M107.36 81.497c-4.233-.846-4.503-1.173-8.845.432-1.98 1.062-2.124 1.764-1.883 3.935.083.767 1.25 2.009 2.502 3.272.648.656 1.325 1.318 1.883 1.92m-3.024-15.024a2.6 2.6 0 0 1-.08-1.084c.134-.882.84-1.89 3.144-2.39 2.304-.505 3.729-.339 4.579-.04.849.295 1.123.72 1.123.72s1.292 1.084 1.044 2.15"
	/>
	<path
		stroke="currentColor"
		stroke-linecap="round"
		stroke-linejoin="round"
		d="M96.78 79.546s-.27-.742-.058-1.638c.216-.9.921-1.959 2.887-2.618 2.001-.67 3.888-.734 5.274-.626 1.386.104 2.275.382 2.275.382s.637.428 1.102 1.076c.464.652.752 1.526.057 2.408"
	/>
	<path
		stroke="currentColor"
		stroke-linecap="round"
		stroke-linejoin="round"
		d="M96.568 82.987s.867-.562 2.124-1.112c1.253-.548 2.898-1.088 4.456-1.026 2.42.093 3.982.525 4.9.892.774.314 1.645-.741 1.548-1.576-.155-1.361-1.85-1.76-1.85-1.76s-2.488-.653-6.408-.253c-3.701.374-4.893 1.58-5.16 2.693-.262 1.112.393 2.138.393 2.138zm4.611 2.383c-.08 4.965-.198 9.94-.332 14.915a1.86 1.86 0 0 0 1.808 1.904l2.757.08a1.86 1.86 0 0 0 1.912-1.808c.144-5.295.266-10.393.349-15.692"
	/>
	<path
		stroke="currentColor"
		stroke-linecap="round"
		stroke-linejoin="round"
		d="M99.692 87.235c-.223-.291-.612-.716.237-1.512.252-.237.796-.464 1.21-.626 1.011-.396 1.742-.472 2.804-.238 1.091.241 3.337.094 3.946-.284.353-.22 1.055-1.228.813-2.675M59.563 59.415c-.367-.036-.767-.083-1.03-.346-.299-.295-.317-.763-.317-1.184 0-4.44 0-8.874.004-13.313 0-9.62.007-19.242.01-28.862 0-.464.019-.979.332-1.32.342-.375.914-.411 1.422-.422 13.19-.23 26.38.014 39.571.263 16.863.313 33.721.63 50.584.943a477 477 0 0 1-1.102 43.409c-.029.418-.072.867-.353 1.18-.356.397-.957.425-1.486.425-6.056-.003-64.606 1.39-87.635-.774"
	/>
	<path
		stroke="currentColor"
		stroke-linecap="round"
		stroke-linejoin="round"
		d="M75.805 25.442c-.014.806-.014 1.613-.014 2.51 0 .579.054 2.022.054 3.793 0 2.351-.792 3.726-4.295 3.726-1.188 0-2.459-.079-3.528-.277.054-.727.173-3.37.144-4.043.302.12.583.198 1.058.198.713 0 1.11-.316 1.11-1.137 0-1.36-.026-4.003-.174-4.77zm12.276 0c-.014.331-.04.886-.04 1.335 0 .49.015 1.059.04 1.376a764 764 0 0 0-5.511-.025v1.004c1.796 0 3.884-.015 5.378-.065a71 71 0 0 0-.014 2.326 218 218 0 0 0-5.364-.065v1.03c1.613 0 3.884-.015 5.511-.026-.025.382-.025 1.005-.025 1.548 0 .5 0 1.084.025 1.48H77.087c.054-1.4.065-2.84.065-4.957s-.015-3.582-.065-4.957H88.08zm9.753 6.872c0 .554.302.792 1.32.792 1.02 0 1.257-.198 1.257-.594 0-.5-.252-.807-2.286-.95-4.082-.303-4.824-1.218-4.824-3.108 0-2.35 1.757-3.25 6.131-3.25 4.982 0 6.16.831 6.16 2.84 0 .198 0 .421-.015.648-.741-.065-1.994-.104-2.999-.104-.583 0-1.098 0-1.425.025v-.238c0-.49-.238-.727-1.336-.727-.94 0-1.188.212-1.188.554 0 .476.224.767 2.509.965 3.647.317 4.652 1.059 4.652 3.237s-1.44 3.186-6.21 3.186-6.24-.753-6.24-2.816c0-.237.015-.5.04-.766.9.054 2.114.133 3.276.133.461 0 .872-.015 1.178-.025zm22.277-6.872c-.054.871-.065 1.746-.065 3.038 0 .782.025 2.034.025 2.801 0 3.078-1.346 4.31-6.674 4.31s-6.675-1.228-6.675-4.31c0-.767.025-2.023.025-2.8a64 64 0 0 0-.064-3.04h5.605c-.04 1.639-.079 3.965-.079 5.394 0 .86.396 1.242 1.321 1.242s1.256-.382 1.256-1.242c0-1.43-.039-3.755-.054-5.393zm1.241 9.91c.04-1.44.04-2.855.04-4.957 0-2.103 0-3.528-.04-4.957h5.562c-.04 1.425-.04 2.84-.04 4.942s.015 3.518.04 4.968h-5.562zm11.128-3.038c0 .554.303.792 1.321.792s1.257-.198 1.257-.594c0-.5-.252-.807-2.286-.95-4.083-.303-4.824-1.218-4.824-3.108 0-2.35 1.757-3.25 6.131-3.25 4.982 0 6.159.831 6.159 2.84 0 .198 0 .421-.014.648-.742-.065-1.995-.104-2.999-.104-.583 0-1.098 0-1.426.025v-.238c0-.49-.237-.727-1.335-.727-.94 0-1.188.212-1.188.554 0 .476.223.767 2.509.965 3.647.317 4.651 1.059 4.651 3.237s-1.44 3.186-6.21 3.186-6.239-.753-6.239-2.816c0-.237.015-.5.04-.766.9.054 2.113.133 3.276.133.461 0 .871-.015 1.177-.025zm-38.04 8.985c-.767 2.484-2.182 8.406-2.499 9.91a322 322 0 0 0-4.28-.025c-2.3 0-3.676.015-4.36.026-.331-1.48-1.786-7.442-2.563-9.911h5.724c.054.831.46 3.395.925 5.565.144.53.263 1.124.356 1.653.105-.53.224-1.123.357-1.653.45-2.152.9-4.73.965-5.565h5.378zm.63 9.911c.039-1.44.039-2.855.039-4.957 0-2.103 0-3.528-.04-4.958h5.562c-.039 1.426-.039 2.84-.039 4.943s.014 3.517.039 4.968h-5.562zm14.179-9.911c4.241 0 6.041.86 6.041 4.557 0 4.295-1.548 5.354-6.12 5.354h-7.254c.025-1.4.04-2.84.04-4.943s-.015-3.607-.04-4.968zm.594 4.745c0-1.667-.421-1.984-1.386-1.984-.396 0-.781.014-1.163.025-.014.688-.025 1.415-.025 2.113v1.85c.396.04.767.04 1.188.04.951 0 1.386-.356 1.386-2.048zm17.392-4.745c-.014.331-.039.885-.039 1.335 0 .49.014 1.059.039 1.376a763 763 0 0 0-5.511-.026v1.005c1.796 0 3.884-.015 5.378-.065a71 71 0 0 0-.014 2.326 218 218 0 0 0-5.364-.065v1.03a943 943 0 0 0 5.511-.026c-.025.382-.025 1.005-.025 1.548 0 .5 0 1.084.025 1.48h-10.994c.054-1.4.065-2.84.065-4.957s-.015-3.582-.065-4.958h10.994zm-17.744 97.7H59.825v-6.4h42.081m10.165 0h10.933v6.4h-3.366m3.367 11.773h-63.18v-6.405h56.185"
	/>
</svg>
