<svg width="12" height="12" viewBox="0 0 12 12" fill="none" xmlns="http://www.w3.org/2000/svg">
<path d="M5.74292 4.6853C5.82528 4.43823 6.17475 4.43823 6.2571 4.6853L6.74121 6.13762C6.957 6.785 7.46499 7.29299 8.11236 7.50878L9.5647 7.9929C9.81177 8.07525 9.81177 8.42472 9.5647 8.50708L8.11237 8.99119C7.46499 9.20698 6.957 9.71498 6.74121 10.3624L6.2571 11.8147C6.17475 12.0618 5.82528 12.0618 5.74292 11.8147L5.2588 10.3623C5.04301 9.71497 4.53501 9.20698 3.88765 8.99119L2.4353 8.50708C2.18823 8.42472 2.18823 8.07525 2.4353 7.9929L3.88765 7.50878C4.53502 7.29299 5.04301 6.785 5.2588 6.13764L5.74292 4.6853Z" fill="#CE5558"/>
<path d="M2.84576 0.86118C2.89517 0.712939 3.10485 0.71294 3.15427 0.861181L3.44473 1.73258C3.5742 2.121 3.879 2.4258 4.26742 2.55527L5.13883 2.84574C5.28707 2.89515 5.28707 3.10484 5.13883 3.15425L4.26743 3.44472C3.879 3.57419 3.5742 3.87899 3.44473 4.26742L3.15427 5.13882C3.10485 5.28706 2.89517 5.28706 2.84576 5.13882L2.55528 4.26741C2.42581 3.87899 2.12101 3.57419 1.73259 3.44472L0.861181 3.15425C0.71294 3.10484 0.71294 2.89515 0.861181 2.84574L1.73259 2.55527C2.12101 2.4258 2.42581 2.121 2.55528 1.73258L2.84576 0.86118Z" fill="#CE5558"/>
<path d="M8.14717 0.0741199C8.18012 -0.0247072 8.31991 -0.0247064 8.35285 0.074121L8.54649 0.655051C8.6328 0.914001 8.836 1.1172 9.09495 1.20352L9.67588 1.39716C9.77471 1.4301 9.77471 1.56989 9.67588 1.60283L9.09495 1.79648C8.836 1.8828 8.6328 2.086 8.54649 2.34495L8.35285 2.92588C8.31991 3.02471 8.18012 3.02471 8.14717 2.92588L7.95352 2.34494C7.86721 2.08599 7.66401 1.8828 7.40506 1.79648L6.82413 1.60283C6.7253 1.56989 6.7253 1.4301 6.82413 1.39716L7.40506 1.20351C7.66401 1.1172 7.86721 0.914003 7.95353 0.655056L8.14717 0.0741199Z" fill="#CE5558"/>
</svg>
