<svg width="90" height="25" fill="none" class="icon icon-paiement-3">
<rect width="89" height="23" x=".5" y=".997" stroke="#EBEBEB" rx="1.5"/>
<path fill="#010C27" d="M12.94 13.627v.05c.22.03.41.07.59.13.84.28 1.2.83 1.2 1.68 0 1.34-1.12 2.14-3.11 2.14-2.06 0-3.06-.86-3.06-2.25 0-.11.01-.18.01-.31.14.02.29.02.47.02.19 0 .36 0 .48-.02v.26c0 .91.65 1.48 2.1 1.48 1.55 0 2.13-.54 2.13-1.44 0-.84-.6-1.31-1.97-1.31-.39 0-.8 0-1.26.02.01-.13.02-.3.02-.45s0-.26-.01-.38c.27.01.7.03 1.25.03 1.37 0 1.88-.52 1.88-1.29 0-.8-.63-1.29-2.01-1.29-1.4 0-2 .54-2 1.39v.32c-.12-.02-.28-.02-.48-.02-.18 0-.32 0-.47.02-.01-.16-.01-.25-.01-.41 0-1.25.92-2.13 2.96-2.13 2.02 0 2.99.81 2.99 2 0 .79-.36 1.31-1.06 1.6-.18.07-.39.12-.64.16m7.17-2.14h1.13c-.54.68-1.29 1.81-2.09 2.97.81 1.11 1.7 2.32 2.2 3.04h-1.21c-.35-.54-.74-1.08-1.21-1.76-.27-.41-.44-.69-.6-.94h-.05c-.15.25-.33.54-.6.94-.48.73-.85 1.22-1.15 1.76h-1.16c.46-.63 1.37-1.92 2.16-3.04-.78-1.11-1.51-2.2-2.07-2.97h1.19c.34.56.8 1.23 1.24 1.91.21.32.34.55.46.75h.04c.11-.2.25-.42.46-.74.48-.72.94-1.4 1.26-1.92m7.892 5.35c1.25 0 1.74-.31 1.74-.98 0-.61-.41-.92-2.09-1.09-1.84-.18-2.38-.78-2.38-1.74 0-1.13.92-1.68 2.64-1.68 1.81 0 2.61.57 2.61 1.75 0 .15 0 .24-.01.39-.12-.01-.3-.01-.47-.01-.18 0-.34 0-.43.01.01-.1.01-.23.01-.3 0-.73-.47-1.07-1.71-1.07-1.18 0-1.7.31-1.7.92 0 .56.35.87 2 1.04 1.85.2 2.46.73 2.46 1.8 0 1.13-.83 1.75-2.68 1.75-2 0-2.82-.64-2.82-1.86 0-.11.01-.2.01-.32a5 5 0 0 0 .91 0c-.01.09-.01.17-.01.24 0 .83.61 1.15 1.92 1.15m8.43-1.66v-.33c-.55-.09-1.2-.12-1.88-.12-1.15 0-1.69.33-1.69 1.08 0 .69.45 1.07 1.49 1.07 1.37 0 2.08-.72 2.08-1.7m.03 1.14h-.05c-.32.84-1.15 1.29-2.41 1.29-1.34 0-2.09-.54-2.09-1.68 0-1.18.81-1.73 2.51-1.73.85 0 1.56.06 2.02.17.01-.25.01-.48.01-.67 0-.88-.45-1.51-1.67-1.51-1.15 0-1.72.52-1.69 1.5-.12-.01-.26-.01-.43-.01-.18 0-.37 0-.51.02-.05-1.36.77-2.32 2.62-2.32 1.92 0 2.65.98 2.65 2.27 0 .73-.03 1.3-.03 2.02s.03 1.52.12 1.83h-.8c-.22 0-.27-.05-.27-.3s.01-.58.02-.88m8.49 1.18h-1.02c.02-.94.03-2.03.03-3.64 0-1.06-.46-1.64-1.65-1.64-1.13 0-2.03.57-2.03 1.83 0 2.09.01 2.84.02 3.45h-1.01c.02-.81.03-1.62.03-2.9 0-1.32-.01-2.33-.03-3.11h1.01c-.01.4-.01.72-.02 1.12l.06.01c.39-.81 1.21-1.23 2.36-1.23 1.47 0 2.24.77 2.24 2.28 0 .99-.02 1.32-.02 1.92 0 .68.01 1.29.03 1.91m4.251-.66c1.25 0 1.74-.31 1.74-.98 0-.61-.41-.92-2.09-1.09-1.84-.18-2.38-.78-2.38-1.74 0-1.13.92-1.68 2.64-1.68 1.81 0 2.61.57 2.61 1.75 0 .15 0 .24-.01.39-.12-.01-.3-.01-.47-.01-.18 0-.34 0-.43.01.01-.1.01-.23.01-.3 0-.73-.47-1.07-1.71-1.07-1.18 0-1.7.31-1.7.92 0 .56.35.87 2 1.04 1.85.2 2.46.73 2.46 1.8 0 1.13-.83 1.75-2.68 1.75-2 0-2.82-.64-2.82-1.86 0-.11.01-.2.01-.32a5 5 0 0 0 .91 0c-.01.09-.01.17-.01.24 0 .83.61 1.15 1.92 1.15m7.666-4.98v-.34c0-1.14.59-1.84 2.08-1.84.58 0 1.03.07 1.5.23-.05.21-.12.58-.15.85-.32-.15-.73-.24-1.2-.24-.89 0-1.25.31-1.25 1.13v.21c.81 0 1.65-.01 2.43-.02-.01.24-.01.56-.01.86-.79-.02-1.61-.03-2.42-.03 0 2.32 0 3.57.04 4.83-.19-.01-.36-.01-.52-.01s-.33 0-.52.01c.03-1.1.05-2.13.05-3.26 0-.35-.01-.91-.02-1.56-.34 0-.67.01-.98.02v-.84zm5.39.98h.07c.31-.99 1-1.44 2-1.44.45 0 .82.09 1.15.22-.06.23-.14.67-.17.94-.32-.16-.68-.23-1.09-.23-1.03 0-1.77.58-1.77 2.03 0 1.07 0 2.46.03 3.14h-1.05c.02-.84.02-1.73.02-3.02 0-1.28 0-2.13-.02-2.99h.88c-.01.37-.03.81-.05 1.35m8.07 2.34v-.33c-.55-.09-1.2-.12-1.88-.12-1.15 0-1.69.33-1.69 1.08 0 .69.45 1.07 1.49 1.07 1.37 0 2.08-.72 2.08-1.7m.03 1.14h-.05c-.32.84-1.15 1.29-2.41 1.29-1.34 0-2.09-.54-2.09-1.68 0-1.18.81-1.73 2.51-1.73.85 0 1.56.06 2.02.17.01-.25.01-.48.01-.67 0-.88-.45-1.51-1.67-1.51-1.15 0-1.72.52-1.69 1.5-.12-.01-.26-.01-.43-.01-.18 0-.37 0-.51.02-.05-1.36.77-2.32 2.62-2.32 1.92 0 2.65.98 2.65 2.27 0 .73-.03 1.3-.03 2.02s.03 1.52.12 1.83h-.8c-.22 0-.27-.05-.27-.3s.01-.58.02-.88m4.129-5.96c0 .25-.14.47-.71.47-.56 0-.7-.22-.7-.47 0-.27.15-.45.7-.45s.71.18.71.45m-.2 7.14h-1.02c.03-1 .03-1.85.03-3.11 0-1.19 0-1.96-.03-2.9h1.02c-.04.94-.04 1.7-.04 2.93 0 1.31 0 2.08.04 3.08m4.407-.66c1.25 0 1.74-.31 1.74-.98 0-.61-.41-.92-2.09-1.09-1.84-.18-2.38-.78-2.38-1.74 0-1.13.92-1.68 2.64-1.68 1.81 0 2.61.57 2.61 1.75 0 .15 0 .24-.01.39-.12-.01-.3-.01-.47-.01-.18 0-.34 0-.43.01.01-.1.01-.23.01-.3 0-.73-.47-1.07-1.71-1.07-1.18 0-1.7.31-1.7.92 0 .56.35.87 2 1.04 1.85.2 2.46.73 2.46 1.8 0 1.13-.83 1.75-2.68 1.75-2 0-2.82-.64-2.82-1.86 0-.11.01-.2.01-.32a5 5 0 0 0 .91 0c-.01.09-.01.17-.01.24 0 .83.61 1.15 1.92 1.15"/>
</svg>
